# xmcd CD database file
#
# Track frame offsets:
#	150
#	10778
#	20637
#	30620
#	41275
#	51316
#	61685
#	72225
#	81587
#	91278
#	101421
#	111460
#	121557
#	132834
#	143379
#	152413
#
# Disc length: 2168 seconds
#
# Revision: 1
# Processed by: cddbd v1.5.2PL0 Copyright (c) Steve Scherf et al.
# Submitted via: jetAudio 7
#
DISCID=c3087610
DTITLE=Chet Atkins - The Great Chet Atkins Disc 1
DYEAR=2005
DGENRE=Country
TTITLE0=Guitars On Parade
TTITLE1=Simple Simon
TTITLE2=Rubber Doll Rag
TTITLE3=City Slicker
TTITLE4=Georgia Camp Meeting
TTITLE5=Three O'Clock In The Morning
TTITLE6=12th Street Rag
TTITLE7=Alice Blue Gown
TTITLE8=Memphis Blues
TTITLE9=Country Gentleman
TTITLE10=The Bells Of St. Mary's
TTITLE11=Oh! By Jingo, Oh! By Gee! (You're The Only Girl For Me)
TTITLE12=Pig Leaf Rag
TTITLE13=High Rockin' Swing
TTITLE14=Chinatown, My Chinatown
TTITLE15=Black Mountain Rag
EXTD=Rajon Distribution Pty Ltd. Disc 1 of 3 found in recordstore in P
EXTD=erth, Western Australia.
EXTT0=
EXTT1=
EXTT2=
EXTT3=
EXTT4=
EXTT5=
EXTT6=
EXTT7=
EXTT8=
EXTT9=
EXTT10=
EXTT11=
EXTT12=
EXTT13=
EXTT14=
EXTT15=
PLAYORDER=
